<svg width="24" height="24" viewBox="0 0 24 24" fill="none" xmlns="http://www.w3.org/2000/svg">
<rect x="0.200195" width="23.3784" height="23.3784" rx="11.6892" fill="#44FF57" fill-opacity="0.12"/>
<path d="M16.5901 12.585C16.6133 12.3975 16.6287 12.2025 16.6287 12C16.6287 11.7975 16.6133 11.6025 16.5824 11.415L17.8861 10.425C18.0019 10.335 18.0327 10.17 17.9633 10.0425L16.729 7.965C16.6518 7.83 16.4898 7.785 16.351 7.83L14.8158 8.43C14.4918 8.19 14.1523 7.995 13.7743 7.845L13.5429 6.255C13.5198 6.105 13.3886 6 13.2343 6H10.7657C10.6114 6 10.488 6.105 10.4648 6.255L10.2334 7.845C9.85538 7.995 9.50823 8.1975 9.19193 8.43L7.65676 7.83C7.51789 7.7775 7.35589 7.83 7.27875 7.965L6.04443 10.0425C5.96729 10.1775 5.99815 10.335 6.12158 10.425L7.42532 11.415C7.39446 11.6025 7.37132 11.805 7.37132 12C7.37132 12.195 7.38675 12.3975 7.41761 12.585L6.11386 13.575C5.99814 13.665 5.96729 13.83 6.03672 13.9575L7.27103 16.035C7.34818 16.17 7.51018 16.215 7.64904 16.17L9.18422 15.57C9.50823 15.81 9.84766 16.005 10.2257 16.155L10.4571 17.745C10.488 17.895 10.6114 18 10.7657 18H13.2343C13.3886 18 13.5198 17.895 13.5352 17.745L13.7666 16.155C14.1446 16.005 14.4918 15.8025 14.8081 15.57L16.3432 16.17C16.4821 16.2225 16.6441 16.17 16.7213 16.035L17.9556 13.9575C18.0327 13.8225 18.0019 13.665 17.8784 13.575L16.5901 12.585V12.585ZM12 14.25C10.7271 14.25 9.68566 13.2375 9.68566 12C9.68566 10.7625 10.7271 9.75 12 9.75C13.2729 9.75 14.3143 10.7625 14.3143 12C14.3143 13.2375 13.2729 14.25 12 14.25Z" fill="#44FF57"/>
</svg>
