<svg width="382" height="44" viewBox="0 0 382 44" fill="none" xmlns="http://www.w3.org/2000/svg">
<path fill-rule="evenodd" clip-rule="evenodd" d="M118.954 32.0508C118.954 30.3906 118.368 29.1211 117.196 28.2422C116.024 27.3438 113.915 26.4062 110.868 25.4297C107.821 24.4336 105.409 23.457 103.631 22.5C98.7877 19.8828 96.3658 16.3574 96.3658 11.9238C96.3658 9.61914 97.0104 7.56836 98.2994 5.77148C99.608 3.95508 101.473 2.53906 103.895 1.52344C106.337 0.507812 109.071 0 112.098 0C115.145 0 117.86 0.556641 120.243 1.66992C122.626 2.76367 124.471 4.31641 125.78 6.32812C127.108 8.33984 127.772 10.625 127.772 13.1836H118.983C118.983 11.2305 118.368 9.7168 117.137 8.64258C115.907 7.54883 114.178 7.00195 111.952 7.00195C109.803 7.00195 108.133 7.46094 106.942 8.37891C105.751 9.27734 105.155 10.4688 105.155 11.9531C105.155 13.3398 105.848 14.502 107.235 15.4395C108.641 16.377 110.702 17.2559 113.417 18.0762C118.417 19.5801 122.059 21.4453 124.344 23.6719C126.63 25.8984 127.772 28.6719 127.772 31.9922C127.772 35.6836 126.376 38.584 123.583 40.6934C120.79 42.7832 117.03 43.8281 112.303 43.8281C109.022 43.8281 106.034 43.2324 103.339 42.041C100.643 40.8301 98.5826 39.1797 97.1569 37.0898C95.7506 35 95.0475 32.5781 95.0475 29.8242H103.866C103.866 34.5312 106.678 36.8848 112.303 36.8848C114.393 36.8848 116.024 36.4648 117.196 35.625C118.368 34.7656 118.954 33.5742 118.954 32.0508ZM80.5455 34.4531H65.1354L62.2057 43.2422H52.86L68.7389 0.585938H76.8834L92.8502 43.2422H83.5045L80.5455 34.4531ZM67.5084 27.334H78.1725L72.8112 11.3672L67.5084 27.334ZM159.676 43.2422H168.465V0.585938H159.676V17.8711H142.538V0.585938H133.749V43.2422H142.538V24.9609H159.676V43.2422ZM201.835 24.7559H184.96V36.1816H204.764V43.2422H176.171V0.585938H204.706V7.70508H184.96V17.8711H201.835V24.7559ZM235.819 43.2422H244.608V0.585938H235.848V28.7109L218.71 0.585938H209.921V43.2422H218.71V15.1758L235.819 43.2422ZM286.034 37.8516C284.452 39.7461 282.215 41.2207 279.325 42.2754C276.434 43.3105 273.231 43.8281 269.715 43.8281C266.024 43.8281 262.782 43.0273 259.989 41.4258C257.215 39.8047 255.067 37.4609 253.544 34.3945C252.04 31.3281 251.268 27.7246 251.229 23.584V20.6836C251.229 16.4258 251.942 12.7441 253.368 9.63867C254.813 6.51367 256.883 4.13086 259.579 2.49023C262.294 0.830078 265.467 0 269.1 0C274.159 0 278.114 1.21094 280.965 3.63281C283.817 6.03516 285.506 9.54102 286.034 14.1504H277.479C277.089 11.709 276.219 9.92188 274.872 8.78906C273.544 7.65625 271.708 7.08984 269.364 7.08984C266.376 7.08984 264.1 8.21289 262.538 10.459C260.975 12.7051 260.184 16.0449 260.165 20.4785V23.2031C260.165 27.6758 261.014 31.0547 262.714 33.3398C264.413 35.625 266.903 36.7676 270.184 36.7676C273.485 36.7676 275.839 36.0645 277.245 34.6582V27.3047H269.247V20.8301H286.034V37.8516ZM293.739 43.2422H302.528V0.585938H293.739V43.2422ZM345.389 43.2422H336.6L319.491 15.1758V43.2422H310.702V0.585938H319.491L336.63 28.7109V0.585938H345.389V43.2422ZM361.854 24.7559H378.729V17.8711H361.854V7.70508H381.6V0.585938H353.065V43.2422H381.659V36.1816H361.854V24.7559ZM41.86 23C41.86 15.268 35.592 9 27.86 9H1.4C0.626801 9 0 8.3732 0 7.6V3.4C0 2.6268 0.626801 2 1.4 2H27.86C39.458 2 48.86 11.402 48.86 23C48.86 34.598 39.458 44 27.86 44H24.99C24.2168 44 23.59 43.3732 23.59 42.6V38.4C23.59 37.6268 24.2168 37 24.99 37H27.86C35.592 37 41.86 30.732 41.86 23ZM23.835 16.14C23.835 15.3668 24.4607 14.8742 25.0627 15.3594C26.9058 16.8452 29.5845 20.6084 30.7011 22.2334C31.0191 22.6962 31.0186 23.3033 30.6997 23.7655C29.5824 25.3844 26.906 29.1279 25.0637 30.6074C24.4608 31.0915 23.835 30.5982 23.835 29.825V27.9C23.835 27.1268 23.2082 26.5 22.435 26.5H1.4C0.626802 26.5 0 25.8732 0 25.1V20.9C0 20.1268 0.626801 19.5 1.4 19.5H22.435C23.2082 19.5 23.835 18.8732 23.835 18.1V16.14Z" fill="#D6D6D6"/>
</svg>
