<svg width="24" height="25" viewBox="0 0 24 25" fill="none" xmlns="http://www.w3.org/2000/svg">
<rect x="0.197266" y="0.703857" width="23.3784" height="23.3784" rx="11.6892" fill="#0889FF" fill-opacity="0.12"/>
<rect x="5.89893" y="6.39655" width="11.9889" height="11.9889" rx="5.99445" fill="#0989FF"/>
<path d="M11.8195 8.1944C10.0753 8.1944 8.57717 9.26381 7.91625 10.7883L7.47639 10.6121C7.37215 10.5702 7.25305 10.5954 7.17482 10.6756C7.09639 10.7561 7.07389 10.8757 7.11806 10.9787L7.81779 12.6138C7.84689 12.6813 7.90118 12.735 7.96971 12.7622C8.03803 12.7899 8.1144 12.7891 8.1819 12.7598L9.81707 12.06C9.92007 12.0161 9.98633 11.9141 9.98509 11.8018C9.98365 11.6897 9.91491 11.5894 9.81088 11.5477L9.25646 11.3256C9.70272 10.3322 10.6817 9.63927 11.8192 9.63927C13.376 9.63927 14.6425 10.9339 14.6425 12.5255C14.6425 14.1171 13.3756 15.4119 11.8192 15.4119C11.128 15.4119 10.4955 15.156 10.0051 14.732C9.71882 14.4847 9.29259 14.4965 9.02611 14.7652C9.0226 14.769 9.0193 14.7721 9.01579 14.7758C8.72207 15.0713 8.74333 15.5531 9.05852 15.8252C9.80304 16.4679 10.767 16.8568 11.8192 16.8568C14.1725 16.8568 16.0874 14.9141 16.0874 12.5255C16.0878 10.1373 14.1729 8.1944 11.8195 8.1944Z" fill="white"/>
</svg>
