<svg width="24" height="25" viewBox="0 0 24 25" fill="none" xmlns="http://www.w3.org/2000/svg">
<rect x="0.197266" y="0.703857" width="23.3784" height="23.3784" rx="11.6892" fill="#FF6B00" fill-opacity="0.12"/>
<path d="M5.86902 16.499C5.48306 17.1656 5.96411 18 6.73445 18H17.1603C17.9306 18 18.4117 17.1656 18.0257 16.499L12.8128 7.49483C12.4276 6.82954 11.4671 6.82954 11.0819 7.49483L5.86902 16.499ZM12.5789 15.4737C12.5789 15.8225 12.2962 16.1053 11.9474 16.1053V16.1053C11.5986 16.1053 11.3158 15.8225 11.3158 15.4737V15.4737C11.3158 15.1249 11.5986 14.8421 11.9474 14.8421V14.8421C12.2962 14.8421 12.5789 15.1249 12.5789 15.4737V15.4737ZM12.5789 12.9474C12.5789 13.2962 12.2962 13.5789 11.9474 13.5789V13.5789C11.5986 13.5789 11.3158 13.2962 11.3158 12.9474V11.6842C11.3158 11.3354 11.5986 11.0526 11.9474 11.0526V11.0526C12.2962 11.0526 12.5789 11.3354 12.5789 11.6842V12.9474Z" fill="#FF6B00"/>
</svg>
