<svg width="26" height="23" viewBox="0 0 26 23" fill="none" xmlns="http://www.w3.org/2000/svg">
<path d="M1.47609 16.9049C-0.0677705 19.5716 1.85646 22.9091 4.93779 22.9091H21.0622C24.1435 22.9091 26.0678 19.5716 24.5239 16.9049L16.4617 2.97932C14.921 0.318176 11.079 0.318169 9.5383 2.97931L1.47609 16.9049ZM14.3636 17.4545C14.3636 18.2077 13.7531 18.8182 13 18.8182V18.8182C12.2469 18.8182 11.6364 18.2077 11.6364 17.4545V17.4545C11.6364 16.7014 12.2469 16.0909 13 16.0909V16.0909C13.7531 16.0909 14.3636 16.7014 14.3636 17.4545V17.4545ZM14.3636 12C14.3636 12.7531 13.7531 13.3636 13 13.3636V13.3636C12.2469 13.3636 11.6364 12.7531 11.6364 12V9.27273C11.6364 8.51961 12.2469 7.90909 13 7.90909V7.90909C13.7531 7.90909 14.3636 8.51961 14.3636 9.27273V12Z" fill="#444444"/>
</svg>
